<svg width="1220" height="261" viewBox="0 0 1220 261" fill="none" xmlns="http://www.w3.org/2000/svg">
<line x1="-5.83979e-08" y1="0.5" x2="1220" y2="0.49992" stroke="url(#paint0_linear_155_1529)" stroke-opacity="0.2"/>
<line x1="-5.83979e-08" y1="208.5" x2="1220" y2="208.5" stroke="url(#paint1_linear_155_1529)" stroke-opacity="0.2"/>
<line x1="-5.83979e-08" y1="104.5" x2="1220" y2="104.5" stroke="url(#paint2_linear_155_1529)" stroke-opacity="0.2"/>
<line x1="-5.83979e-08" y1="52.5" x2="1220" y2="52.4999" stroke="url(#paint3_linear_155_1529)" stroke-opacity="0.2"/>
<line x1="-5.83979e-08" y1="260.5" x2="1220" y2="260.5" stroke="url(#paint4_linear_155_1529)" stroke-opacity="0.2"/>
<line x1="-5.83979e-08" y1="156.5" x2="1220" y2="156.5" stroke="url(#paint5_linear_155_1529)" stroke-opacity="0.2"/>
<defs>
<linearGradient id="paint0_linear_155_1529" x1="5.83979e-08" y1="1.5" x2="1220" y2="1.49986" gradientUnits="userSpaceOnUse">
<stop stop-color="#CDCDCD"/>
<stop offset="1" stop-color="white"/>
</linearGradient>
<linearGradient id="paint1_linear_155_1529" x1="5.83979e-08" y1="209.5" x2="1220" y2="209.5" gradientUnits="userSpaceOnUse">
<stop stop-color="#CDCDCD"/>
<stop offset="1" stop-color="white"/>
</linearGradient>
<linearGradient id="paint2_linear_155_1529" x1="5.83979e-08" y1="105.5" x2="1220" y2="105.5" gradientUnits="userSpaceOnUse">
<stop stop-color="#CDCDCD"/>
<stop offset="1" stop-color="white"/>
</linearGradient>
<linearGradient id="paint3_linear_155_1529" x1="5.83979e-08" y1="53.5" x2="1220" y2="53.4999" gradientUnits="userSpaceOnUse">
<stop stop-color="#CDCDCD"/>
<stop offset="1" stop-color="white"/>
</linearGradient>
<linearGradient id="paint4_linear_155_1529" x1="5.83979e-08" y1="261.5" x2="1220" y2="261.5" gradientUnits="userSpaceOnUse">
<stop stop-color="#CDCDCD"/>
<stop offset="1" stop-color="white"/>
</linearGradient>
<linearGradient id="paint5_linear_155_1529" x1="5.83979e-08" y1="157.5" x2="1220" y2="157.5" gradientUnits="userSpaceOnUse">
<stop stop-color="#CDCDCD"/>
<stop offset="1" stop-color="white"/>
</linearGradient>
</defs>
</svg>
