<svg xmlns="http://www.w3.org/2000/svg" width="73" height="75" viewBox="0 0 73 75" fill="none">
  <path d="M73 52.7905C72.8388 50.7554 72.5887 48.7203 72.2504 46.6678C68.2228 57.6778 61.3286 68.132 52.4644 68.132C48.1471 67.9923 44.0108 66.045 40.793 62.6356C42.2717 58.9633 43.5196 55.167 44.527 51.2772C47.8785 38.6666 44.527 28.4564 39.4115 26.23C36.6183 25.0124 32.7667 26.1256 30.2972 32.9788C27.6806 40.1799 28.9303 49.7987 33.5457 58.0955C34.6036 59.9663 35.8099 61.7138 37.1473 63.314C34.9279 67.8886 32.5613 70.4798 29.9889 71.141C26.4903 72.0628 22.2566 69.4017 17.4203 63.1051C14.9361 59.807 12.9473 56.0302 11.5404 51.9382C14.5172 49.91 17.0381 47.0643 18.8903 43.6413C24.9172 33.205 24.6232 19.0464 20.8895 12.0366C18.9491 8.40124 16.2296 6.69663 13.2015 7.23584C10.4967 7.7229 8.29176 10.5929 6.82177 15.5327C4.38157 23.6557 4.10232 37.536 7.77727 50.0597C7.0794 50.2878 6.36631 50.445 5.64581 50.5293C-0.851562 51.3294 -9.05404 46.0416 -18.7118 34.8748C-26.6938 25.7778 -29.5896 11.9844 -30.4422 0C-31.3683 1.65246 -32.2209 3.35699 -33 5.0616C-31.6917 16.4198 -28.3695 28.6999 -20.8138 37.4143C-10.3476 49.59 -1.61595 54.9476 5.88099 54.0431C6.87933 53.9371 7.86509 53.7042 8.8209 53.3474C10.3793 57.8131 12.5718 61.9316 15.3036 65.5228C20.1545 71.7848 24.535 74.8636 28.6214 74.8636C29.3083 74.8636 29.9934 74.7757 30.6649 74.6022C33.9576 73.7329 36.8243 70.863 39.485 65.7489C43.1537 69.4213 47.7774 71.4911 52.5821 71.6105C61.5493 71.6105 68.4729 62.8617 73 52.7905ZM9.52651 16.7503C10.5849 13.2716 12.0696 11.0103 13.5837 10.732C13.7892 10.715 13.9955 10.715 14.2011 10.732C15.067 10.8118 15.9013 11.1525 16.6243 11.7219C17.3474 12.2913 17.9352 13.0703 18.3317 13.9847C21.595 20.1073 21.595 32.7353 16.3913 41.8149C14.8972 44.6265 12.8876 47.0045 10.5114 48.7725C7.10109 37.0664 7.33627 24.0732 9.52651 16.7503ZM38.5589 60.0962C37.6167 58.8453 36.7616 57.5073 36.0011 56.0956C31.9141 48.7899 30.7679 40.4408 32.9873 34.266C34.193 30.9785 35.751 29.2043 37.3974 29.2043C37.7383 29.2049 38.0766 29.2755 38.3971 29.413C41.6456 30.8394 44.7029 39.0493 41.7338 50.164C40.8582 53.5525 39.7978 56.8702 38.5589 60.0962Z" fill="#0D0E10"/>
</svg>