<svg xmlns="http://www.w3.org/2000/svg" width="671" height="239" viewBox="0 0 671 239" fill="none">
  <path fill-rule="evenodd" clip-rule="evenodd" d="M681 94.9644V84.6368C669.656 81.5592 658.109 79.1172 646.378 77.3616C602.178 70.7616 556.678 73.0616 513.478 84.8616C470.278 96.6616 429.278 119.462 390.578 143.262C385.515 146.373 380.397 149.546 375.227 152.753C304.111 196.858 223.002 247.162 136.678 225.162C98.278 215.362 63.178 191.662 40.278 159.262C15.678 124.462 5.47803 80.2616 11.578 38.1616C15.6464 10.0828 16.1118 10.2061 16.9792 10.4359C17.4123 10.5507 17.9457 10.692 19.078 7.36155C20.8528 2.14176 18.704 0.000788756 15.9598 2.17905e-07C15.9587 -7.26428e-08 15.9577 -7.26274e-08 15.9567 2.17905e-07C13.4442 0.000722018 10.4337 1.79459 9.478 4.66155C-4.52201 45.6616 -2.92199 91.4616 13.678 131.462C29.278 168.962 58.178 200.062 93.978 219.162C114.744 230.241 138.908 236.912 163.797 239H197.815C204.59 238.431 211.328 237.519 217.978 236.262C264.678 227.462 307.678 205.362 348.078 181.162C358.111 175.126 368.069 168.933 378.03 162.738C407.682 144.296 437.365 125.833 469.178 111.462C511.678 92.2616 558.178 82.6616 604.978 83.7616C630.875 84.3702 656.374 88.1328 681 94.9644Z" fill="#1282EC" fill-opacity="0.1"/>
</svg>