<svg xmlns="http://www.w3.org/2000/svg" width="78" height="75" viewBox="0 0 78 75" fill="none">
  <path d="M106 52.8727C105.839 50.8376 105.589 48.8026 105.25 46.7501C101.223 57.7601 94.3286 68.2143 85.4644 68.2143C81.1471 68.0746 77.0108 66.1272 73.793 62.7179C75.2717 59.0456 76.5196 55.2493 77.527 51.3595C80.8785 38.7489 77.527 28.5387 72.4115 26.3123C69.6183 25.0947 65.7667 26.2079 63.2972 33.0611C60.6806 40.2622 61.9303 49.881 66.5457 58.1778C67.6036 60.0485 68.8099 61.796 70.1473 63.3963C67.9279 67.9709 65.5613 70.5621 62.9889 71.2232C59.4903 72.1451 55.2566 69.484 50.4203 63.1874C47.9361 59.8893 45.9473 56.1125 44.5404 52.0205C47.5172 49.9923 50.0381 47.1466 51.8903 43.7236C57.9172 33.2872 57.6232 19.1286 53.8895 12.1189C51.9491 8.48351 49.2296 6.77891 46.2015 7.31811C43.4967 7.80517 41.2918 10.6752 39.8218 15.615C37.3816 23.738 37.1023 37.6183 40.7773 50.1419C40.0794 50.3701 39.3663 50.5273 38.6458 50.6116C32.1484 51.4117 23.946 46.1239 14.2882 34.9571C6.3062 25.8601 3.41036 12.0666 2.55777 0.0822754C1.63169 1.73474 0.779089 3.43927 0 5.14387C1.30828 16.5021 4.63045 28.7822 12.1862 37.4966C22.6524 49.6723 31.3841 55.0299 38.881 54.1254C39.8793 54.0194 40.8651 53.7865 41.8209 53.4297C43.3793 57.8953 45.5718 62.0139 48.3036 65.6051C53.1545 71.8671 57.535 74.9459 61.6214 74.9459C62.3083 74.9459 62.9934 74.858 63.6649 74.6844C66.9576 73.8152 69.8243 70.9453 72.485 65.8312C76.1537 69.5035 80.7774 71.5733 85.5821 71.6928C94.5493 71.6928 101.473 62.944 106 52.8727ZM42.5265 16.8326C43.5849 13.3538 45.0696 11.0926 46.5837 10.8143C46.7892 10.7973 46.9955 10.7973 47.2011 10.8143C48.067 10.894 48.9013 11.2348 49.6243 11.8042C50.3474 12.3736 50.9352 13.1526 51.3317 14.067C54.595 20.1896 54.595 32.8176 49.3913 41.8972C47.8972 44.7088 45.8876 47.0867 43.5114 48.8547C40.1011 37.1487 40.3363 24.1554 42.5265 16.8326ZM71.5589 60.1785C70.6167 58.9276 69.7616 57.5896 69.0011 56.1779C64.9141 48.8722 63.7679 40.5231 65.9873 34.3483C67.193 31.0608 68.751 29.2866 70.3974 29.2866C70.7383 29.2871 71.0766 29.3578 71.3971 29.4953C74.6456 30.9217 77.7029 39.1315 74.7338 50.2463C73.8582 53.6348 72.7978 56.9525 71.5589 60.1785Z" fill="#0D0E10"/>
</svg>