<svg xmlns="http://www.w3.org/2000/svg" width="17" height="17" viewBox="0 0 17 17" fill="none">
  <path d="M16.3 8.1C16.3 6.99543 15.4046 6.1 14.3 6.1H13.15C11.4655 6.1 10.1 4.73447 10.1 3.05V1.94995C10.1 0.873021 9.22695 0 8.15002 0C7.0731 0 6.20007 0.873023 6.20007 1.94995V3.05C6.20007 4.73447 4.83454 6.1 3.15007 6.1H2C0.89543 6.1 0 6.99543 0 8.1C0 9.20457 0.89543 10.1 2 10.1H3.15007C4.83454 10.1 6.20007 11.4655 6.20007 13.15V14.25C6.20007 15.327 7.0731 16.2 8.15002 16.2C9.22695 16.2 10.1 15.327 10.1 14.25V13.15C10.1 11.4655 11.4655 10.1 13.15 10.1H14.3C15.4046 10.1 16.3 9.20457 16.3 8.1Z" fill="#D1D1D1"/>
</svg>